<?xml version="1.0" encoding="UTF-8" standalone="no"?>
<!-- Created with Inkscape (http://www.inkscape.org/) -->

<svg
   width="72.070869mm"
   height="54.091843mm"
   viewBox="0 0 72.070869 54.091843"
   version="1.1"
   id="svg1"
   inkscape:version="1.3.1 (9b9bdc1480, 2023-11-25, custom)"
   sodipodi:docname="humdrumR_light.svg"
   xml:space="preserve"
   xmlns:inkscape="http://www.inkscape.org/namespaces/inkscape"
   xmlns:sodipodi="http://sodipodi.sourceforge.net/DTD/sodipodi-0.dtd"
   xmlns="http://www.w3.org/2000/svg"
   xmlns:svg="http://www.w3.org/2000/svg"><sodipodi:namedview
     id="namedview1"
     pagecolor="#ffffff"
     bordercolor="#666666"
     borderopacity="1.0"
     inkscape:showpageshadow="2"
     inkscape:pageopacity="0.0"
     inkscape:pagecheckerboard="0"
     inkscape:deskcolor="#d1d1d1"
     inkscape:document-units="mm"
     inkscape:zoom="1.3073055"
     inkscape:cx="297.94107"
     inkscape:cy="126.59627"
     inkscape:window-width="1870"
     inkscape:window-height="1016"
     inkscape:window-x="50"
     inkscape:window-y="27"
     inkscape:window-maximized="1"
     showguides="false"
     showgrid="false"
     inkscape:current-layer="svg1" /><defs
     id="defs1"><inkscape:path-effect
       effect="powerclip"
       id="path-effect142"
       is_visible="true"
       lpeversion="1"
       inverse="true"
       flatten="false"
       hide_clip="false"
       message="Use fill-rule evenodd on &lt;b&gt;fill and stroke&lt;/b&gt; dialog if no flatten result after convert clip to paths." /><inkscape:path-effect
       effect="powerclip"
       id="path-effect139"
       is_visible="true"
       lpeversion="1"
       inverse="true"
       flatten="false"
       hide_clip="false"
       message="Use fill-rule evenodd on &lt;b&gt;fill and stroke&lt;/b&gt; dialog if no flatten result after convert clip to paths." /><inkscape:path-effect
       effect="powerclip"
       id="path-effect105"
       is_visible="true"
       lpeversion="1"
       inverse="true"
       flatten="false"
       hide_clip="false"
       message="Use fill-rule evenodd on &lt;b&gt;fill and stroke&lt;/b&gt; dialog if no flatten result after convert clip to paths." /><inkscape:path-effect
       effect="powerclip"
       id="path-effect100"
       is_visible="true"
       lpeversion="1"
       inverse="true"
       flatten="false"
       hide_clip="false"
       message="Use fill-rule evenodd on &lt;b&gt;fill and stroke&lt;/b&gt; dialog if no flatten result after convert clip to paths." /><inkscape:path-effect
       effect="powerclip"
       id="path-effect70"
       is_visible="true"
       lpeversion="1"
       inverse="true"
       flatten="false"
       hide_clip="false"
       message="Use fill-rule evenodd on &lt;b&gt;fill and stroke&lt;/b&gt; dialog if no flatten result after convert clip to paths." /><inkscape:path-effect
       effect="powerclip"
       id="path-effect19"
       is_visible="true"
       lpeversion="1"
       inverse="true"
       flatten="false"
       hide_clip="false"
       message="Use fill-rule evenodd on &lt;b&gt;fill and stroke&lt;/b&gt; dialog if no flatten result after convert clip to paths." /><inkscape:path-effect
       effect="powerclip"
       id="path-effect15"
       is_visible="true"
       lpeversion="1"
       inverse="true"
       flatten="false"
       hide_clip="false"
       message="Use fill-rule evenodd on &lt;b&gt;fill and stroke&lt;/b&gt; dialog if no flatten result after convert clip to paths." /><inkscape:path-effect
       effect="powerclip"
       id="path-effect131"
       is_visible="true"
       lpeversion="1"
       inverse="true"
       flatten="false"
       hide_clip="false"
       message="Use fill-rule evenodd on &lt;b&gt;fill and stroke&lt;/b&gt; dialog if no flatten result after convert clip to paths." /><inkscape:path-effect
       effect="powerclip"
       id="path-effect123"
       is_visible="true"
       lpeversion="1"
       inverse="true"
       flatten="false"
       hide_clip="false"
       message="Use fill-rule evenodd on &lt;b&gt;fill and stroke&lt;/b&gt; dialog if no flatten result after convert clip to paths." /><inkscape:path-effect
       effect="powerclip"
       id="path-effect119"
       is_visible="true"
       lpeversion="1"
       inverse="true"
       flatten="false"
       hide_clip="false"
       message="Use fill-rule evenodd on &lt;b&gt;fill and stroke&lt;/b&gt; dialog if no flatten result after convert clip to paths." /><rect
       x="34.749966"
       y="-66.980919"
       width="110.01099"
       height="99.444778"
       id="rect109" /><inkscape:path-effect
       effect="powerclip"
       id="path-effect97"
       is_visible="true"
       lpeversion="1"
       inverse="true"
       flatten="false"
       hide_clip="false"
       message="Use fill-rule evenodd on &lt;b&gt;fill and stroke&lt;/b&gt; dialog if no flatten result after convert clip to paths." /><inkscape:path-effect
       effect="powerclip"
       id="path-effect95"
       is_visible="true"
       lpeversion="1"
       inverse="true"
       flatten="false"
       hide_clip="false"
       message="Use fill-rule evenodd on &lt;b&gt;fill and stroke&lt;/b&gt; dialog if no flatten result after convert clip to paths." /><clipPath
       clipPathUnits="userSpaceOnUse"
       id="clipPath95"><rect
         style="display:block;fill:#ff9b00;stroke-width:0"
         id="rect95"
         width="42.187275"
         height="68.569153"
         x="-69.006393"
         y="254.14609" /></clipPath><clipPath
       clipPathUnits="userSpaceOnUse"
       id="clipPath108"><rect
         style="display:block;fill:#ff9b00;stroke-width:0"
         id="rect108"
         width="35.848804"
         height="61.008835"
         x="22.431286"
         y="259.8551"
         transform="scale(-1,1)" /></clipPath><clipPath
       clipPathUnits="userSpaceOnUse"
       id="clipath_lpe_path-effect119"><rect
         style="display:block;fill:#ff9b00;stroke-width:0"
         id="rect119"
         width="42.187275"
         height="68.569153"
         x="-69.006393"
         y="254.14609" /></clipPath><clipPath
       clipPathUnits="userSpaceOnUse"
       id="clipath_lpe_path-effect123"><rect
         style="display:block;fill:#ff9b00;stroke-width:0"
         id="rect123"
         width="42.187275"
         height="68.569153"
         x="-69.006393"
         y="254.14609" /></clipPath><clipPath
       clipPathUnits="userSpaceOnUse"
       id="clipath_lpe_path-effect131"><rect
         style="display:block;fill:#ff9b00;stroke-width:0"
         id="rect131"
         width="42.187275"
         height="68.569153"
         x="-69.006393"
         y="254.14609" /></clipPath><clipPath
       clipPathUnits="userSpaceOnUse"
       id="clipath_lpe_path-effect15"><rect
         style="display:block;fill:#ff9b00;stroke-width:0"
         id="rect15"
         width="42.187275"
         height="68.569153"
         x="-69.006393"
         y="254.14609" /></clipPath><clipPath
       clipPathUnits="userSpaceOnUse"
       id="clipath_lpe_path-effect19"><rect
         style="display:block;fill:#ff9b00;stroke-width:0"
         id="rect19"
         width="42.187275"
         height="68.569153"
         x="-69.006393"
         y="254.14609" /></clipPath><clipPath
       clipPathUnits="userSpaceOnUse"
       id="clipath_lpe_path-effect70"><rect
         style="display:block;fill:#ff9b00;stroke-width:0"
         id="rect70"
         width="42.187275"
         height="68.569153"
         x="-69.006393"
         y="254.14609" /></clipPath><clipPath
       clipPathUnits="userSpaceOnUse"
       id="clipath_lpe_path-effect100"><rect
         style="display:block;fill:#ff9b00;stroke-width:0"
         id="rect100"
         width="42.187275"
         height="68.569153"
         x="-69.006393"
         y="254.14609" /></clipPath><clipPath
       clipPathUnits="userSpaceOnUse"
       id="clipath_lpe_path-effect105"><rect
         style="display:block;fill:#ff9b00;stroke-width:0"
         id="rect105"
         width="42.187275"
         height="68.569153"
         x="-69.006393"
         y="254.14609" /></clipPath><clipPath
       clipPathUnits="userSpaceOnUse"
       id="clipath_lpe_path-effect19-3"><rect
         style="display:none;fill:#ff9b00;stroke-width:0"
         id="rect19-1"
         width="42.187275"
         height="68.569153"
         x="-69.006393"
         y="254.14609"
         d="m -69.006393,254.14609 h 42.187275 v 68.56915 h -42.187275 z" /><path
         id="lpe_path-effect19-8"
         style="fill:#ff9b00;stroke-width:0"
         class="powerclip"
         d="m -94.168028,256.46209 h 51.497762 v 54.26674 h -51.497762 z m 25.161635,-2.316 v 68.56915 h 42.187275 v -68.56915 z" /></clipPath><inkscape:path-effect
       effect="powerclip"
       id="path-effect19-2"
       is_visible="true"
       lpeversion="1"
       inverse="true"
       flatten="false"
       hide_clip="false"
       message="Use fill-rule evenodd on &lt;b&gt;fill and stroke&lt;/b&gt; dialog if no flatten result after convert clip to paths." /><clipPath
       clipPathUnits="userSpaceOnUse"
       id="clipPath108-7"><rect
         style="display:block;fill:#ff9b00;stroke-width:0"
         id="rect108-0"
         width="35.848804"
         height="61.008835"
         x="22.431286"
         y="259.8551"
         transform="scale(-1,1)" /></clipPath><clipPath
       clipPathUnits="userSpaceOnUse"
       id="clipath_lpe_path-effect19-2"><rect
         style="display:block;fill:#ff9b00;stroke-width:0"
         id="rect106"
         width="42.187275"
         height="68.569153"
         x="-69.006393"
         y="254.14609" /></clipPath><clipPath
       clipPathUnits="userSpaceOnUse"
       id="clipath_lpe_path-effect139"><rect
         style="display:block;fill:#ff9b00;stroke-width:0"
         id="rect139"
         width="42.187275"
         height="68.569153"
         x="-69.006393"
         y="254.14609" /></clipPath><clipPath
       clipPathUnits="userSpaceOnUse"
       id="clipath_lpe_path-effect142"><rect
         style="display:none;fill:#ff9b00;stroke-width:0"
         id="rect142"
         width="42.187275"
         height="68.569153"
         x="-69.006393"
         y="254.14609"
         d="m -69.006393,254.14609 h 42.187275 v 68.56915 h -42.187275 z" /><path
         id="lpe_path-effect142"
         style="fill:#ff9b00;stroke-width:0"
         class="powerclip"
         d="m -94.668039,255.96233 h 52.496891 v 55.2665 h -52.496891 z m 25.661646,-1.81624 v 68.56915 h 42.187275 v -68.56915 z" /></clipPath><clipPath
       clipPathUnits="userSpaceOnUse"
       id="clipPath144"><rect
         style="fill:#ff9b00;stroke:#ffffff;stroke-width:0"
         id="rect144"
         width="1.6670491"
         height="0.64542246"
         x="36.59779"
         y="37.190613" /></clipPath></defs><g
     inkscape:label="Layer 1"
     inkscape:groupmode="layer"
     id="layer1"
     transform="translate(-40.534116,-94.0421)"><text
       xml:space="preserve"
       transform="scale(0.26458333)"
       id="text108"
       style="font-style:normal;font-variant:normal;font-weight:normal;font-stretch:normal;font-size:40px;line-height:1.25;font-family:sans-serif;-inkscape-font-specification:'sans-serif, Normal';font-variant-ligatures:normal;font-variant-caps:normal;font-variant-numeric:normal;font-variant-east-asian:normal;letter-spacing:0px;word-spacing:0px;white-space:pre;shape-inside:url(#rect109);display:inline;fill:#000000;fill-opacity:1;stroke:none"><tspan
         x="34.75"
         y="67.853516"
         id="tspan4"><tspan
           dx="0 29.277344 33.515625 25.449219 25.449219 25.449219"
           id="tspan3">U+211D</tspan></tspan></text><g
       id="g105"
       transform="matrix(1.6905999,0,0,1.6405684,37.25688,44.112744)"
       style="stroke:none;stroke-opacity:1;fill:#b3a369;fill-opacity:1"><path
         style="fill:#b3a369;stroke:none;stroke-opacity:1;fill-opacity:1"
         d="m -48.327182,264.02895 c -3.31513,-2.01039 -3.80694,-1.56646 -6.15187,-1.87845 l -4.00397,-0.53272 -7.66346,-0.12245 c -8.10299,-0.12947 -11.67952,0.10018 -16.004356,1.02768 -1.30288,0.27941 -2.46373,0.50802 -2.57969,0.50802 l -3.03239,1.08518 c -0.50664,0.31312 -1.03155,0.85965 -1.16647,1.2145 -0.27431,0.72149 -0.33046,6.74795 -0.0719,7.71383 0.10898,0.40707 0.56319,0.79097 1.3193,1.11507 l 1.15311,0.49428 v 10.05242 10.05241 l -1.19063,0.69775 -1.19062,0.69776 v 2.84427 c 0,3.26614 0.0343,3.32752 2.37141,4.24662 4.29466,1.68892 10.383066,2.48785 18.927536,2.48369 9.33862,-0.005 15.64307,-0.98879 18.71927,-2.92242 0.91387,-0.57444 0.99339,-0.72261 1.00744,-1.87712 0.0331,-2.71906 0.6798,-2.5169 -0.44898,-3.59682 -1.12611,-1.07736 -0.79422,-12.4565 0.15062,-27.72346 z m -27.97113,38.51311 c -0.32463,-0.32463 -0.18096,-1.60711 0.21705,-1.93743 0.54027,-0.44838 1.64938,-0.12317 1.86173,0.54589 0.30978,0.97601 -1.36992,2.1004 -2.07878,1.39154 z m 14.1343,-0.19255 c -0.4207,-0.50691 -0.27794,-1.48467 0.26659,-1.82581 0.52166,-0.32682 1.7197,-0.0537 1.90715,0.43477 0.42626,1.11081 -1.42377,2.2947 -2.17374,1.39104 z m -10.21434,-2.7718 c -1.02123,-0.10541 -2.00349,-0.28233 -2.18281,-0.39316 -0.18116,-0.11196 -0.32604,-0.73733 -0.32604,-1.40737 0,-1.12406 0.0404,-1.19444 0.59531,-1.03738 1.06784,0.30223 7.68247,0.50176 10.05762,0.30338 l 2.31854,-0.19364 -0.0696,-9.03794 -0.0696,-9.03794 -3.43958,-0.017 c -8.93661,-0.0442 -8.681053,-0.12551 -9.460183,-0.0937 -0.398657,0.0163 -0.169907,2.90753 -0.180337,9.68273 l -0.0168,10.89494 -1.52136,-0.14215 c -0.83674,-0.0782 -1.9976,-0.2543 -2.57968,-0.39137 -0.582086,-0.13707 -1.687316,-0.31397 -2.456076,-0.3931 -0.76876,-0.0791 -1.72126,-0.23072 -2.11667,-0.33684 l -0.71892,-0.19296 V 286.0971 c 0,-6.42791 5e-5,-11.68755 1e-4,-11.68809 5e-5,-5.4e-4 0.83349,0.18374 1.85208,0.4095 3.971006,0.88015 7.405986,1.15947 14.551986,1.18334 7.2243,0.0241 10.48777,-0.24508 13.89062,-1.14584 0.80037,-0.21186 1.90872,-0.46557 2.46301,-0.5638 l 1.00781,-0.1786 -0.049,10.74309 c -0.0459,10.04738 -0.0184,10.7655 0.42425,11.08916 0.7378,0.53949 0.3141,1.05937 -1.27045,1.55885 -1.93538,0.61008 -6.89006,1.50957 -8.31517,1.50957 -0.62677,0 -1.13959,0.0992 -1.13959,0.22049 0,0.26714 0.30808,0.24244 -5.02708,0.40312 -2.40109,0.0723 -5.20117,0.0452 -6.2224,-0.0602 z m 20.4277,-3.93687 c -0.0666,-0.25466 -0.121,-0.0463 -0.121,0.46303 0,0.50932 0.0544,0.71768 0.121,0.46302 0.0666,-0.25467 0.0666,-0.67138 0,-0.92605 z m -23.99488,-8.13089 v -9.12309 l -0.59531,-0.12268 c -0.32743,-0.0675 -1.21683,-0.17099 -1.97645,-0.23003 l -1.381126,-0.10733 0.0582,9.02238 0.0582,9.02237 1.852076,0.29938 c 1.01865,0.16465 1.88185,0.31348 1.91823,0.33073 0.0364,0.0172 0.0661,-4.07404 0.0661,-9.09173 z m 17.79323,8.70952 1.25677,-0.17569 v -9.00264 -9.00265 l -1.38906,0.16685 c -0.76399,0.0918 -1.71649,0.16788 -2.11667,0.16914 l -0.72761,0.002 v 9.15757 9.15757 l 0.8599,-0.14838 c 0.47294,-0.0816 1.42544,-0.22744 2.11667,-0.32407 z m -22.591026,-10.09995 c 0.027,-4.25446 0.11152,-7.89809 0.18783,-8.09695 0.10045,-0.26176 -0.30497,-0.45573 -1.46865,-0.70268 -0.88407,-0.18761 -1.63422,-0.29445 -1.667,-0.23742 -0.0328,0.057 -0.0267,4.12205 0.0135,9.03337 l 0.073,8.92969 0.72071,0.0186 c 0.39638,0.0102 0.95883,0.11271 1.24987,0.22775 0.44653,0.17649 0.55356,0.0806 0.68541,-0.61391 0.0859,-0.45268 0.17834,-4.30399 0.20533,-8.55845 z m 27.254016,8.91147 1.60772,-0.3163 0.0727,-9.19613 c 0.0718,-9.08716 0.0666,-9.19183 -0.44574,-8.83282 -0.28515,0.19982 -1.20788,0.49895 -2.05052,0.66472 l -1.53207,0.30142 v 8.98972 c 0,7.59287 0.0575,8.96765 0.37008,8.8477 0.20354,-0.0781 1.09356,-0.28435 1.97781,-0.45831 z m -33.039546,3.71871 c 0,-0.51472 0.13402,-0.79375 0.38126,-0.79375 0.53409,0 0.65177,0.29942 0.38995,0.99219 -0.32156,0.85082 -0.77121,0.73512 -0.77121,-0.19844 z m 24.224396,-24.06052 c -0.60817,-0.67202 -0.5021,-1.53281 0.24955,-2.02532 0.61274,-0.40148 0.71018,-0.40148 1.32292,0 0.7593,0.49751 0.82074,0.86981 0.27268,1.65228 -0.53427,0.76277 -1.34424,0.92653 -1.84515,0.37304 z m -14.02294,-0.34007 c -0.78335,-1.11838 -0.35014,-2.05779 0.94895,-2.05779 1.32434,0 1.83634,1.48057 0.80059,2.3151 -0.61812,0.49804 -1.28966,0.39927 -1.74954,-0.25731 z m 1.30791,-4.2149 c -3.78102,-0.30018 -8.689646,-1.17697 -10.043476,-1.794 -1.64023,-0.74755 -2.19045,-1.24092 -1.81207,-1.62481 0.24626,-0.24983 0.53592,-0.21472 1.32292,0.16032 1.58068,0.75328 4.42295,1.41987 8.019086,1.88069 4.7323,0.60642 15.80761,0.62295 19.71146,0.0294 3.93287,-0.59794 6.70386,-1.1968 7.59518,-1.64145 0.40702,-0.20305 0.73919,-0.25243 0.73919,-0.10989 0,0.45444 -2.95267,1.5879 -5.82083,2.23448 -4.76649,1.07452 -12.69288,1.42245 -19.71146,0.86524 z m -1.20339,-2.73654 c -4.527886,-0.54892 -8.718476,-1.62577 -8.718476,-2.24038 0,-0.51287 3.12389,-1.39631 7.672906,-2.1699 2.67533,-0.45497 13.57371,-0.45573 17.33021,-0.001 6.62822,0.80197 9.75632,1.44666 9.59638,1.97778 -0.28384,0.94254 -4.03438,2.00553 -8.99064,2.54817 -3.42724,0.37523 -13.40912,0.3076 -16.89038,-0.11444 z"
         id="path104"
         clip-path="url(#clipath_lpe_path-effect142)"
         transform="matrix(0.32450977,0,0,0.32450977,60.035468,-35.815151)"
         inkscape:original-d="m -48.327182,264.02895 c -3.31513,-2.01039 -3.80694,-1.56646 -6.15187,-1.87845 l -4.00397,-0.53272 -7.66346,-0.12245 c -8.10299,-0.12947 -11.67952,0.10018 -16.004356,1.02768 -1.30288,0.27941 -2.46373,0.50802 -2.57969,0.50802 l -3.03239,1.08518 c -0.50664,0.31312 -1.03155,0.85965 -1.16647,1.2145 -0.27431,0.72149 -0.33046,6.74795 -0.0719,7.71383 0.10898,0.40707 0.56319,0.79097 1.3193,1.11507 l 1.15311,0.49428 v 10.05242 10.05241 l -1.19063,0.69775 -1.19062,0.69776 v 2.84427 c 0,3.26614 0.0343,3.32752 2.37141,4.24662 4.29466,1.68892 10.383066,2.48785 18.927536,2.48369 9.33862,-0.005 15.64307,-0.98879 18.71927,-2.92242 0.91387,-0.57444 0.99339,-0.72261 1.00744,-1.87712 0.0331,-2.71906 0.6798,-2.5169 -0.44898,-3.59682 -1.12611,-1.07736 -0.79422,-12.4565 0.15062,-27.72346 z m -27.97113,38.51311 c -0.32463,-0.32463 -0.18096,-1.60711 0.21705,-1.93743 0.54027,-0.44838 1.64938,-0.12317 1.86173,0.54589 0.30978,0.97601 -1.36992,2.1004 -2.07878,1.39154 z m 14.1343,-0.19255 c -0.4207,-0.50691 -0.27794,-1.48467 0.26659,-1.82581 0.52166,-0.32682 1.7197,-0.0537 1.90715,0.43477 0.42626,1.11081 -1.42377,2.2947 -2.17374,1.39104 z m -10.21434,-2.7718 c -1.02123,-0.10541 -2.00349,-0.28233 -2.18281,-0.39316 -0.18116,-0.11196 -0.32604,-0.73733 -0.32604,-1.40737 0,-1.12406 0.0404,-1.19444 0.59531,-1.03738 1.06784,0.30223 7.68247,0.50176 10.05762,0.30338 l 2.31854,-0.19364 -0.0696,-9.03794 -0.0696,-9.03794 -3.43958,-0.017 c -8.93661,-0.0442 -8.681053,-0.12551 -9.460183,-0.0937 -0.398657,0.0163 -0.169907,2.90753 -0.180337,9.68273 l -0.0168,10.89494 -1.52136,-0.14215 c -0.83674,-0.0782 -1.9976,-0.2543 -2.57968,-0.39137 -0.582086,-0.13707 -1.687316,-0.31397 -2.456076,-0.3931 -0.76876,-0.0791 -1.72126,-0.23072 -2.11667,-0.33684 l -0.71892,-0.19296 V 286.0971 c 0,-6.42791 5e-5,-11.68755 1e-4,-11.68809 5e-5,-5.4e-4 0.83349,0.18374 1.85208,0.4095 3.971006,0.88015 7.405986,1.15947 14.551986,1.18334 7.2243,0.0241 10.48777,-0.24508 13.89062,-1.14584 0.80037,-0.21186 1.90872,-0.46557 2.46301,-0.5638 l 1.00781,-0.1786 -0.049,10.74309 c -0.0459,10.04738 -0.0184,10.7655 0.42425,11.08916 0.7378,0.53949 0.3141,1.05937 -1.27045,1.55885 -1.93538,0.61008 -6.89006,1.50957 -8.31517,1.50957 -0.62677,0 -1.13959,0.0992 -1.13959,0.22049 0,0.26714 0.30808,0.24244 -5.02708,0.40312 -2.40109,0.0723 -5.20117,0.0452 -6.2224,-0.0602 z m 20.4277,-3.93687 c -0.0666,-0.25466 -0.121,-0.0463 -0.121,0.46303 0,0.50932 0.0544,0.71768 0.121,0.46302 0.0666,-0.25467 0.0666,-0.67138 0,-0.92605 z m -23.99488,-8.13089 v -9.12309 l -0.59531,-0.12268 c -0.32743,-0.0675 -1.21683,-0.17099 -1.97645,-0.23003 l -1.381126,-0.10733 0.0582,9.02238 0.0582,9.02237 1.852076,0.29938 c 1.01865,0.16465 1.88185,0.31348 1.91823,0.33073 0.0364,0.0172 0.0661,-4.07404 0.0661,-9.09173 z m 17.79323,8.70952 1.25677,-0.17569 v -9.00264 -9.00265 l -1.38906,0.16685 c -0.76399,0.0918 -1.71649,0.16788 -2.11667,0.16914 l -0.72761,0.002 v 9.15757 9.15757 l 0.8599,-0.14838 c 0.47294,-0.0816 1.42544,-0.22744 2.11667,-0.32407 z m -22.591026,-10.09995 c 0.027,-4.25446 0.11152,-7.89809 0.18783,-8.09695 0.10045,-0.26176 -0.30497,-0.45573 -1.46865,-0.70268 -0.88407,-0.18761 -1.63422,-0.29445 -1.667,-0.23742 -0.0328,0.057 -0.0267,4.12205 0.0135,9.03337 l 0.073,8.92969 0.72071,0.0186 c 0.39638,0.0102 0.95883,0.11271 1.24987,0.22775 0.44653,0.17649 0.55356,0.0806 0.68541,-0.61391 0.0859,-0.45268 0.17834,-4.30399 0.20533,-8.55845 z m 27.254016,8.91147 1.60772,-0.3163 0.0727,-9.19613 c 0.0718,-9.08716 0.0666,-9.19183 -0.44574,-8.83282 -0.28515,0.19982 -1.20788,0.49895 -2.05052,0.66472 l -1.53207,0.30142 v 8.98972 c 0,7.59287 0.0575,8.96765 0.37008,8.8477 0.20354,-0.0781 1.09356,-0.28435 1.97781,-0.45831 z m -33.039546,3.71871 c 0,-0.51472 0.13402,-0.79375 0.38126,-0.79375 0.53409,0 0.65177,0.29942 0.38995,0.99219 -0.32156,0.85082 -0.77121,0.73512 -0.77121,-0.19844 z m 24.224396,-24.06052 c -0.60817,-0.67202 -0.5021,-1.53281 0.24955,-2.02532 0.61274,-0.40148 0.71018,-0.40148 1.32292,0 0.7593,0.49751 0.82074,0.86981 0.27268,1.65228 -0.53427,0.76277 -1.34424,0.92653 -1.84515,0.37304 z m -14.02294,-0.34007 c -0.78335,-1.11838 -0.35014,-2.05779 0.94895,-2.05779 1.32434,0 1.83634,1.48057 0.80059,2.3151 -0.61812,0.49804 -1.28966,0.39927 -1.74954,-0.25731 z m 1.30791,-4.2149 c -3.78102,-0.30018 -8.689646,-1.17697 -10.043476,-1.794 -1.64023,-0.74755 -2.19045,-1.24092 -1.81207,-1.62481 0.24626,-0.24983 0.53592,-0.21472 1.32292,0.16032 1.58068,0.75328 4.42295,1.41987 8.019086,1.88069 4.7323,0.60642 15.80761,0.62295 19.71146,0.0294 3.93287,-0.59794 6.70386,-1.1968 7.59518,-1.64145 0.40702,-0.20305 0.73919,-0.25243 0.73919,-0.10989 0,0.45444 -2.95267,1.5879 -5.82083,2.23448 -4.76649,1.07452 -12.69288,1.42245 -19.71146,0.86524 z m -1.20339,-2.73654 c -4.527886,-0.54892 -8.718476,-1.62577 -8.718476,-2.24038 0,-0.51287 3.12389,-1.39631 7.672906,-2.1699 2.67533,-0.45497 13.57371,-0.45573 17.33021,-0.001 6.62822,0.80197 9.75632,1.44666 9.59638,1.97778 -0.28384,0.94254 -4.03438,2.00553 -8.99064,2.54817 -3.42724,0.37523 -13.40912,0.3076 -16.89038,-0.11444 z"
         inkscape:path-effect="#path-effect142"
         sodipodi:nodetypes="cscssccssscccccsscsssccssssssssssssscccssscsssscssssssccsssssssssssccsscccssccccccsccccsccssssccssssccssscssscsssssssssssssssssssssssscsscsscc" /><path
         style="fill:#b3a369;stroke:none;stroke-opacity:1;fill-opacity:1"
         d="m -78.699228,263.89995 c 3.315124,-2.01039 3.806933,-1.56646 6.151859,-1.87845 l 4.003963,-0.53272 7.663446,-0.12245 c 8.102975,-0.12947 11.679498,0.10018 16.004326,1.02768 1.91253,0.48669 3.921506,0.54838 5.61207,1.5932 0.506639,0.31312 1.031548,0.85965 1.166468,1.2145 0.27431,0.72149 0.330459,6.74795 0.0719,7.71383 -0.10898,0.40707 -0.563189,0.79097 -1.319298,1.11507 l -1.153108,0.49428 v 10.05242 10.05241 l 1.190628,0.69775 1.190618,0.69776 v 2.84427 c 0,3.26614 -0.0343,3.32752 -2.371406,4.24662 -4.294652,1.68892 -10.383047,2.48785 -18.927501,2.48369 -9.338603,-0.005 -15.643041,-0.98879 -18.719236,-2.92242 -0.913868,-0.57444 -0.993388,-0.72261 -1.007438,-1.87712 -0.0331,-2.71906 -0.679799,-2.5169 0.448979,-3.59682 1.126108,-1.07736 0.794219,-12.4565 -0.150619,-27.72346 z m 27.971079,38.51311 c 0.32463,-0.32463 0.18096,-1.60711 -0.217049,-1.93743 -0.540269,-0.44838 -1.649377,-0.12317 -1.861727,0.54589 -0.309779,0.97601 1.369917,2.1004 2.078776,1.39154 z m -14.134274,-0.19255 c 0.420699,-0.50691 0.27794,-1.48467 -0.266589,-1.82581 -0.521659,-0.32682 -1.719697,-0.0537 -1.907147,0.43477 -0.426259,1.11081 1.423767,2.2947 2.173736,1.39104 z m 10.214321,-2.7718 c 1.021228,-0.10541 2.003487,-0.28233 2.182806,-0.39316 0.18116,-0.11196 0.32604,-0.73733 0.32604,-1.40737 0,-1.12406 -0.0404,-1.19444 -0.595309,-1.03738 -1.067838,0.30223 -7.682456,0.50176 -10.057602,0.30338 l -2.318535,-0.19364 0.0696,-9.03794 0.0696,-9.03794 1.72672,-0.009 1.712854,-0.008 c 8.936594,-0.0442 8.780653,-0.0544 9.475057,-0.16482 0.357425,-0.0568 0.155015,2.97866 0.165445,9.75386 l 0.0168,10.89494 1.521358,-0.14215 c 0.836738,-0.0782 1.997596,-0.2543 2.579675,-0.39137 0.582085,-0.13707 1.687313,-0.31397 2.456071,-0.3931 0.768759,-0.0791 1.721257,-0.23072 2.116666,-0.33684 l 0.718919,-0.19296 v -11.68711 c 0,-6.42791 -5e-5,-11.68755 -10e-5,-11.68809 -5e-5,-5.4e-4 -0.833488,0.18374 -1.852077,0.4095 -3.970998,0.88015 -7.405972,1.15947 -14.551959,1.18334 -7.224287,0.0241 -10.487751,-0.24508 -13.890594,-1.14584 -0.800369,-0.21186 -1.908717,-0.46557 -2.463006,-0.5638 l -1.007808,-0.1786 0.049,10.74309 c 0.0459,10.04738 0.0184,10.7655 -0.424249,11.08916 -0.737799,0.53949 -0.3141,1.05937 1.270447,1.55885 1.935377,0.61008 6.890048,1.50957 8.315155,1.50957 0.626769,0 1.139588,0.0992 1.139588,0.22049 0,0.26714 -0.308079,0.24244 5.027071,0.40312 2.401085,0.0723 5.20116,0.0452 6.222388,-0.0602 z m -20.427662,-3.93687 c 0.0666,-0.25466 0.121,-0.0463 0.121,0.46303 0,0.50932 -0.0544,0.71768 -0.121,0.46302 -0.0666,-0.25467 -0.0666,-0.67138 0,-0.92605 z m 23.994836,-8.13089 v -9.12309 l 0.595309,-0.12268 c 0.327429,-0.0675 1.216828,-0.17099 1.976446,-0.23003 l 1.381124,-0.10733 -0.0582,9.02238 -0.0582,9.02237 -1.852073,0.29938 c -1.018648,0.16465 -1.881846,0.31348 -1.918226,0.33073 -0.0364,0.0172 -0.0661,-4.07404 -0.0661,-9.09173 z m -17.793198,8.70952 -1.256767,-0.17569 v -9.00264 -9.00265 l 1.389057,0.16685 c 0.763989,0.0918 1.716487,0.16788 2.116666,0.16914 l 0.727609,0.002 v 9.15757 9.15757 l -0.859898,-0.14838 c -0.47294,-0.0816 -1.425438,-0.22744 -2.116667,-0.32407 z m 22.590985,-10.09995 c -0.027,-4.25446 -0.11152,-7.89809 -0.18783,-8.09695 -0.100449,-0.26176 0.30497,-0.45573 1.468648,-0.70268 0.884068,-0.18761 1.634217,-0.29445 1.666997,-0.23742 0.0328,0.057 0.0267,4.12205 -0.0135,9.03337 l -0.073,8.92969 -0.720709,0.0186 c -0.396379,0.0102 -0.958828,0.11271 -1.249868,0.22775 -0.446529,0.17649 -0.553559,0.0806 -0.685408,-0.61391 -0.0859,-0.45268 -0.17834,-4.30399 -0.20533,-8.55845 z m -27.253966,8.91147 -1.607717,-0.3163 -0.0727,-9.19613 c -0.0718,-9.08716 -0.0666,-9.19183 0.445739,-8.83282 0.28515,0.19982 1.207878,0.49895 2.050516,0.66472 l 1.532068,0.30142 v 8.98972 c 0,7.59287 -0.0575,8.96765 -0.37008,8.8477 -0.203539,-0.0781 -1.093558,-0.28435 -1.977806,-0.45831 z m 33.039485,3.71871 c 0,-0.51472 -0.134019,-0.79375 -0.381259,-0.79375 -0.534089,0 -0.651769,0.29942 -0.389949,0.99219 0.321559,0.85082 0.771208,0.73512 0.771208,-0.19844 z m -24.224351,-24.06052 c 0.608169,-0.67202 0.502099,-1.53281 -0.24955,-2.02532 -0.612739,-0.40148 -0.710178,-0.40148 -1.322917,0 -0.759299,0.49751 -0.820739,0.86981 -0.27268,1.65228 0.534269,0.76277 1.344238,0.92653 1.845147,0.37304 z m 14.022914,-0.34007 c 0.783349,-1.11838 0.350139,-2.05779 -0.948948,-2.05779 -1.324338,0 -1.836337,1.48057 -0.800589,2.3151 0.618119,0.49804 1.289658,0.39927 1.749537,-0.25731 z m -1.307907,-4.2149 c 3.781013,-0.30018 8.68963,-1.17697 10.043457,-1.794 1.640227,-0.74755 2.190446,-1.24092 1.812067,-1.62481 -0.24626,-0.24983 -0.535919,-0.21472 -1.322918,0.16032 -1.580677,0.75328 -4.422942,1.41987 -8.019071,1.88069 -4.732291,0.60642 -15.807581,0.62295 -19.711424,0.0294 -3.932863,-0.59794 -6.703848,-1.1968 -7.595166,-1.64145 -0.407019,-0.20305 -0.739189,-0.25243 -0.739189,-0.10989 0,0.45444 2.952665,1.5879 5.82082,2.23448 4.766481,1.07452 12.692856,1.42245 19.711424,0.86524 z m 1.203387,-2.73654 c 4.527878,-0.54892 8.71846,-1.62577 8.71846,-2.24038 0,-0.51287 -3.123884,-1.39631 -7.672892,-2.1699 -2.675325,-0.45497 -13.573685,-0.45573 -17.330178,-10e-4 -6.628208,0.80197 -9.756302,1.44666 -9.596362,1.97778 0.283839,0.94254 4.034372,2.00553 8.990623,2.54817 3.427234,0.37523 13.409096,0.3076 16.890349,-0.11444 z"
         id="path105"
         clip-path="url(#clipPath108)"
         sodipodi:nodetypes="cscscsssscccccsscsssccsssssssssssssccccssscsssscssssssccsssssssssssccsscccssccccccsccccsccssssccssssccssscssscsssssssssssssssssssssssscsscsscc"
         transform="matrix(0.32450977,0,0,0.32450977,56.546557,-35.775834)" /></g><g
       id="g141"
       transform="matrix(1.6905999,0,0,1.6405684,37.25688,44.112744)"
       style="stroke:none;stroke-opacity:1;fill:#b3a369;fill-opacity:1"><path
         style="fill:#b3a369;stroke-width:0.324511;stroke:none;stroke-opacity:1;fill-opacity:1"
         d="m 11.796189,62.824818 c 0.662255,-0.894038 0.952433,-1.528513 2.208849,-4.829618 0.224664,-0.590286 0.499388,-1.255489 0.610502,-1.478229 0.231462,-0.464011 0.24907,-0.582408 0.08661,-0.582408 -0.127914,0 -1.005784,1.212372 -1.64751,2.275287 -0.437115,0.724011 -1.092683,2.13311 -1.503008,3.230625 -0.252036,0.67412 -0.516632,1.785411 -0.452269,1.899502 0.09554,0.169369 0.303826,0.01538 0.696822,-0.515159 z m -2.8830589,0.140957 c 0.4949675,-0.254791 1.5104759,-1.316829 2.1667119,-2.265987 0.326494,-0.47223 0.749773,-1.067173 0.940625,-1.322095 0.353101,-0.471649 0.712053,-1.021632 1.51873,-2.326953 0.248056,-0.401392 0.558519,-0.826134 0.650031,-0.97251 0.51904,-0.830175 -0.151306,-0.20258 -0.25994,-0.116113 -0.0817,0.06504 -1.719544,1.548447 -2.497927,2.462384 -0.976043,1.146025 -1.4893086,1.916294 -2.2205504,3.332455 -0.3733849,0.723112 -0.6652055,1.328031 -0.6484894,1.34426 0.01673,0.01622 0.1745879,-0.04472 0.3508339,-0.135441 z m 4.5695369,-1.085414 c 0.482101,-0.975405 1.00876,-2.334663 1.305737,-3.370002 0.115138,-0.401395 0.321228,-1.077541 0.457978,-1.502548 0.245323,-0.762442 0.288847,-0.995278 0.264827,-1.416687 -0.01201,-0.210944 -0.01453,-0.211684 -0.146607,-0.04293 -0.442644,0.565657 -1.553697,3.536316 -2.231811,5.967262 -0.208166,0.746246 -0.258987,1.202036 -0.134024,1.202036 0.03858,0 0.256336,-0.376711 0.4839,-0.837131 z M 8.3519231,60.151473 c 1.1319289,-0.58071 2.0504749,-1.262252 3.3689819,-2.499711 0.883442,-0.829139 1.708635,-1.761845 1.627683,-1.839757 -0.01845,-0.01778 -0.284732,0.09257 -0.591682,0.245226 -1.663928,0.827516 -3.667064,2.365413 -4.8394451,3.715458 -0.6206463,0.714697 -0.7401549,0.892188 -0.5912211,0.878059 0.03544,-0.0033 0.4969756,-0.228033 1.0256833,-0.499275 z m 0.1313317,-1.841667 c 0.3907451,-0.20475 1.342276,-0.755329 2.1145082,-1.223502 0.772232,-0.468177 1.622247,-0.979764 1.888925,-1.136859 0.266679,-0.157096 0.545866,-0.340622 0.620418,-0.407834 0.275942,-0.275865 0.387272,-0.444617 0.345248,-0.589151 -0.151114,-0.09339 -1.096069,0.439289 -3.271243,1.844053 -2.5709597,1.660361 -3.4161431,2.413677 -1.6978461,1.513293 z m 8.2232262,-2.981924 c 0.30695,-0.184075 0.693323,-0.376707 0.858603,-0.428071 0.165281,-0.05136 0.377787,-0.125831 0.472232,-0.165483 0.09445,-0.03965 0.246831,-0.09658 0.338628,-0.126501 l 2.153072,-0.681652 c 1.164013,-0.488598 2.248193,-1.233446 3.0919,-2.124179 1.061077,-1.120221 1.629533,-2.130141 2.144186,-3.809362 0.676721,-2.208029 0.632474,-2.116706 1.542247,-3.182954 0.284935,-0.333937 0.747402,-0.88709 1.027708,-1.229233 0.821174,-1.002317 1.219155,-1.150414 3.354067,-1.248114 2.085431,-0.09544 4.662204,-0.08681 4.761246,-0.09478 3.131147,-0.252003 0.788205,-0.431517 1.142512,-0.412805 L 36.51348,41.69335 32.856324,41.66619 29.199171,41.63903 28.555219,41.316925 c -0.354174,-0.177156 -0.914415,-0.466259 -1.244975,-0.642448 -1.10733,-0.590212 -2.272207,-0.480755 -3.134511,0.294524 -0.352192,0.316654 -0.543806,0.611027 -1.006405,1.54614 -0.537656,1.086842 -0.834792,1.485035 -1.108144,1.485035 -0.162717,0 -0.1496,0.07833 0.10963,0.654731 0.314671,0.699678 0.376523,1.094899 0.280478,1.792274 -0.102061,0.741096 -0.475889,1.561398 -0.980982,2.152609 -0.210368,0.246239 -1.059787,1.015719 -1.887599,1.709959 -1.149037,0.963635 -1.672379,1.471334 -2.212132,2.146012 -1.075601,1.344477 -1.746998,2.650863 -1.582578,3.079329 0.08161,0.212674 0.301049,0.163203 0.918494,-0.207073 z m 9.187054,-13.334905 c 0,-0.252893 0.294288,-0.429359 0.51714,-0.310094 0.335698,0.179658 0.09603,0.611295 -0.29764,0.536041 -0.154083,-0.02947 -0.2195,-0.09679 -0.2195,-0.225947 z m -11.69945,12.398334 c 0.876074,-0.477571 1.484442,-0.946858 1.967215,-1.517492 0.925123,-1.093491 1.802933,-1.87907 2.882462,-2.579606 0.461754,-0.299643 0.839551,-0.584072 0.839551,-0.632064 0,-0.05307 -0.07569,-0.0451 -0.193185,0.02035 -0.111308,0.062 -0.486426,0.106685 -0.885063,0.105426 -0.583536,-0.0019 -0.754625,-0.03726 -1.092574,-0.226141 l -0.400694,-0.223951 -0.875257,0.915751 c -1.356149,1.418893 -2.631471,3.27514 -2.944488,4.285748 -0.08016,0.258813 -0.02165,0.246478 0.702033,-0.148028 z m 5.345788,-5.099931 c 0.570488,-0.151234 1.334154,-0.619031 1.845785,-1.130657 1.080626,-1.08062 1.270079,-2.429134 0.516969,-3.679788 -0.15594,-0.258968 -0.265907,-0.488474 -0.244366,-0.510015 0.05549,-0.05549 -1.882104,-1.598665 -3.105782,-2.473554 C 16.806818,40.249273 10.9462,36.37629 9.7949896,35.709986 9.4642829,35.518577 8.6334616,35.032836 7.948727,34.630562 6.1532697,33.575753 4.3393683,32.646249 3.3804154,32.289605 2.5671721,31.987151 1.9385049,31.890518 1.9385049,32.067967 c 0,0.270328 1.2579685,2.343224 2.0045714,3.303157 0.4199992,0.540012 0.9630399,1.026965 1.3903282,1.246723 0.2159041,0.111046 0.4137591,0.236198 0.4396612,0.278117 0.0614,0.09935 -0.5586569,-0.217818 -0.9652199,-0.493715 -0.4815736,-0.326804 -0.8043812,-0.264205 -0.6787486,0.131625 0.094091,0.296451 1.2630086,1.805161 2.0062604,2.589467 0.6389794,0.674266 0.77238,0.77172 1.3680211,0.999357 0.8581064,0.32794 2.4812569,0.858682 4.0944133,1.3388 0.708347,0.210821 1.238976,0.385278 1.179166,0.38768 -0.33377,0.0134 -4.6371049,-1.308294 -5.60097,-1.72025 -0.6657184,-0.284527 -0.8038231,-0.217346 -0.4935125,0.240066 0.3460328,0.510074 1.8964488,2.045155 2.309725,2.286879 0.4660844,0.272617 0.7940381,0.345321 2.5626645,0.568119 1.860372,0.234351 3.015775,0.414535 3.081116,0.480498 0.02905,0.0293 -0.08246,0.02982 -0.247726,9.64e-4 -0.270771,-0.047 -5.1663664,-0.650026 -5.2772149,-0.650026 -0.02535,0 -0.04614,0.07414 -0.04614,0.164766 0,0.240293 1.0870549,1.195264 1.8633469,1.636942 l 0.664669,0.378164 1.118616,-0.01752 c 0.615236,-0.0096 1.504984,-0.03389 1.977218,-0.05389 l 0.858601,-0.03636 -1.116184,0.116648 c -0.613899,0.06416 -1.548571,0.119533 -2.077046,0.123057 -0.558068,0.0038 -0.98372,0.0434 -1.015396,0.09465 -0.1185,0.191743 0.949051,1.001684 1.646157,1.248924 0.423593,0.150235 0.484274,0.150735 1.410233,0.01161 0.532176,-0.07995 0.981119,-0.131835 0.997656,-0.115301 0.04173,0.04173 -1.342173,0.311841 -1.605557,0.313372 -0.29754,0.0016 -0.445667,0.113637 -0.379312,0.286562 0.132559,0.345434 1.888797,1.160164 2.280216,1.057804 0.100411,-0.02625 0.159745,0.0035 0.159745,0.08024 0,0.153253 0.471749,0.446107 0.826708,0.513206 0.168097,0.03177 0.376941,-0.0016 0.558092,-0.08955 l 0.289478,-0.140322 c -0.06281,0.144764 -0.176142,0.270731 -0.214651,0.418929 0,0.272325 1.504899,0.436729 2.232369,0.243872 z m -3.42726,-1.202931 c 0.08726,-0.08016 1.280749,-0.65172 1.280749,-0.613347 0,0.0518 -1.126407,0.636014 -1.23782,0.641991 -0.04329,0.0023 -0.0626,-0.01058 -0.04293,-0.02866 z M 8.6127615,38.420651 C 6.9366618,37.598435 5.8689332,37.035919 5.9087574,36.996093 c 0.02956,-0.02954 3.9181113,1.900043 4.0076058,1.988652 0.1133038,0.11219 -0.2114771,-0.02835 -1.3036017,-0.564094 z M 19.530952,41.705864 C 19.493571,41.590757 18.51085,40.452825 17.178714,38.982134 15.97308,37.651105 10.837141,32.421621 9.9134632,31.584558 9.28687,31.016719 8.4033834,30.434181 8.1687822,30.434181 c -0.1078226,0 -0.037671,0.605231 0.1253036,1.081272 0.0955,0.278925 0.3610549,0.893505 0.5901301,1.365734 0.2290802,0.47223 0.4457232,0.955191 0.4814364,1.073249 0.1169527,0.386639 0.6509187,1.412265 0.8425617,1.618371 0.103143,0.110927 0.379161,0.299207 0.613371,0.418401 0.378674,0.192718 1.463761,0.853085 3.609597,2.196743 2.041613,1.278396 3.783064,2.500104 4.970977,3.487364 0.09782,0.08129 0.149227,0.09349 0.128793,0.03054 z"
         id="path138"
         sodipodi:nodetypes="sssssssscssssssssccsssscsssssssssssssssssscssccssssssccccsssssssssssccssssssssscscsssscsssssssssssssssssssssscssscsscsssssscssssccsccsscsssssscsssssssssscc" /><path
         style="fill:#b3a369;stroke-width:0.0168352;stroke:none;stroke-opacity:1;fill-opacity:1"
         d="m 37.47486,47.96362 c -0.0086,1.06e-4 -0.04087,-0.0018 -0.07164,-0.0041 -0.211093,-0.01627 -0.390658,-0.113105 -0.475033,-0.25617 -0.03482,-0.05904 -0.04778,-0.09941 -0.05768,-0.179665 -0.0076,-0.06153 -0.008,-0.07699 -0.0028,-0.118865 0.02536,-0.208505 0.147673,-0.413018 0.367291,-0.614122 0.134392,-0.123063 0.298718,-0.22903 0.454558,-0.293126 0.116103,-0.04775 0.220939,-0.0735 0.341904,-0.08398 0.208908,-0.0181 0.350053,-0.0018 0.448601,0.05188 l 0.02408,0.01311 -0.278609,-2.245577 -0.278609,-2.245577 0.08139,-0.01014 0.08139,-0.01014 0.0071,0.03391 c 0.05493,0.262897 0.135975,0.422258 0.28605,0.562489 0.0471,0.04401 0.08247,0.06927 0.208994,0.149275 0.721939,0.456477 1.04689,0.757495 1.236287,1.145231 0.108513,0.22215 0.150114,0.423788 0.144916,0.702388 -0.0015,0.07944 -0.01233,0.206901 -0.02335,0.274477 l -0.006,0.03665 0.02622,0.03938 c 0.09606,0.14428 0.158931,0.291712 0.197096,0.462177 0.01766,0.07889 0.03668,0.270429 0.0354,0.35664 -0.0041,0.274801 -0.05834,0.520354 -0.169001,0.764527 -0.01067,0.02355 -0.02248,0.04976 -0.02623,0.05825 l -0.0068,0.01544 -0.0526,0.0066 c -0.02893,0.0036 -0.05283,0.0048 -0.0531,0.0026 -2.65e-4,-0.0022 0.0082,-0.02246 0.01872,-0.0451 0.08734,-0.187127 0.155162,-0.512026 0.154965,-0.742354 -1.84e-4,-0.122578 -0.03552,-0.324701 -0.08033,-0.459084 -0.03432,-0.10291 -0.08736,-0.196971 -0.156102,-0.27681 -0.169823,-0.197211 -0.368198,-0.312054 -0.947284,-0.548377 -0.273261,-0.111516 -0.354018,-0.14522 -0.431998,-0.180296 l -0.07245,-0.03259 0.162602,1.316008 0.162602,1.316007 -0.0055,0.05006 c -0.02349,0.212393 -0.138229,0.414773 -0.339707,0.599178 -0.188313,0.172356 -0.408985,0.291358 -0.659532,0.355666 -0.04732,0.01214 -0.202001,0.03366 -0.245757,0.03419 z m 2.369283,-3.353255 c -0.0055,-0.09364 -0.03207,-0.279579 -0.04785,-0.335183 -0.02911,-0.10265 -0.06541,-0.180757 -0.129172,-0.27792 -0.08174,-0.124552 -0.18819,-0.240537 -0.352682,-0.384256 -0.218194,-0.19064 -0.559361,-0.370891 -1.059043,-0.559532 l -0.01104,-0.0042 0.0073,0.03426 c 0.05073,0.238614 0.188155,0.481795 0.390956,0.691842 0.129473,0.134098 0.21573,0.203093 0.391778,0.313372 0.218199,0.136682 0.341906,0.221745 0.477151,0.328097 0.131975,0.103783 0.220686,0.183829 0.301394,0.271959 l 0.03503,0.03825 2e-6,-0.02605 c 2e-6,-0.01433 -0.0017,-0.05513 -0.0038,-0.09067 z"
         id="path140" /></g><circle
       id="path139"
       style="fill:#ff9b00;stroke:#ffffff;stroke-width:0.264583"
       cx="91.888359"
       cy="36.909245"
       r="0" /><g
       id="g102"
       transform="matrix(0.97805432,0,0,1,-5.8442887,65.343951)"
       style="stroke:none;stroke-opacity:1;fill:#b3a369;fill-opacity:1"><path
         d="m 118.67745,43.58898 q -0.32724,0.195659 -0.6049,0.731304 l -0.45615,0.87564 h -0.52556 l 0.45284,-0.87564 q 0.19172,-0.36886 0.49251,-0.574136 0.22807,-0.157171 0.64126,-0.157168 z m -0.8462,-0.224526 q -0.17517,0.08019 -0.36029,0.291881 -0.18842,0.211687 -0.39336,0.615833 l -0.6776,1.30865 h 1.52051 l 0.64786,-1.260536 q 0.20492,-0.397727 0.44624,-0.564515 0.24128,-0.166793 0.63795,-0.166793 h 0.0662 v 1.991841 h 1.38829 v -4.788752 h -2.37 q -0.8462,0 -1.26269,0.343197 -0.41647,0.3432 -0.41647,1.036013 0,0.667155 0.38672,0.981486 0.16198,0.131493 0.38674,0.211687 z m 1.88741,-2.187494 v 2.02712 h -1.07427 q -0.0792,0 -0.15535,-0.0064 v -2.014291 q 0.076,-0.0064 0.15535,-0.0064 z m -1.6428,0.08982 v 1.844295 q -0.19173,-0.07376 -0.29088,-0.169982 -0.26444,-0.24377 -0.26444,-0.750549 0,-0.506778 0.26113,-0.753754 0.11231,-0.105844 0.29417,-0.169982 z m 2.63444,-0.08982 v 4.018961 h -0.59498 V 41.17696 Z"
         id="path19"
         style="font-weight:bold;font-size:2.36892px;line-height:1.25;font-family:Laksaman;-inkscape-font-specification:'Laksaman, Bold';letter-spacing:0px;word-spacing:0px;stroke-width:0.166712;stroke:none;stroke-opacity:1;fill:#b3a369;fill-opacity:1"
         aria-label="â„" /><path
         d="m 108.27884,38.762048 v -1.601493 h -0.5962 v 1.601493 c 0,0.952206 -0.28721,1.428308 -1.07594,1.428308 -0.79493,0 -1.04619,-0.470076 -1.04619,-1.428308 v -1.601493 h -0.5962 v 1.601493 c 0,1.283668 0.4562,1.922492 1.64239,1.922492 1.18619,0 1.67214,-0.638824 1.67214,-1.922492 z"
         id="path20"
         style="font-weight:bold;font-size:2.17336px;line-height:1.25;font-family:Laksaman;-inkscape-font-specification:'Laksaman, Bold';letter-spacing:0px;word-spacing:0px;stroke-width:0.152946;stroke:none;stroke-opacity:1;fill:#b3a369;fill-opacity:1"
         aria-label="U"
         sodipodi:nodetypes="sccsssccsss" /><g
         id="g22"
         transform="matrix(2.8575154,0,0,2.7729503,11.458759,-65.965683)"
         style="stroke:none;stroke-opacity:1;fill:#b3a369;fill-opacity:1"><path
           d="m 34.222675,37.882219 v 0.577541 h 0.208642 v -0.577541 c 0,-0.343391 0.100513,-0.515086 0.37653,-0.515086 0.27819,0 0.366121,0.169522 0.366121,0.515086 v 0.577541 h 0.208643 v -0.577541 c 0,-0.462925 -0.159652,-0.693302 -0.574764,-0.693302 -0.415112,0 -0.585172,0.230377 -0.585172,0.693302 z"
           id="path21"
           style="font-weight:bold;font-size:2.17336px;line-height:1.25;font-family:Laksaman;-inkscape-font-specification:'Laksaman, Bold';letter-spacing:0px;word-spacing:0px;stroke-width:0.054334;stroke:none;stroke-opacity:1;fill:#b3a369;fill-opacity:1"
           aria-label="U"
           sodipodi:nodetypes="sccsssccsss" /><path
           d="m 35.174185,37.88338 v 0.577541 h 0.208642 V 37.88338 c 0,-0.343391 0.100513,-0.515086 0.37653,-0.515086 0.27819,0 0.366121,0.169522 0.366121,0.515086 v 0.577541 h 0.208643 V 37.88338 c 0,-0.462925 -0.159652,-0.693302 -0.574764,-0.693302 -0.415112,0 -0.585172,0.230377 -0.585172,0.693302 z"
           id="path22"
           style="font-weight:bold;font-size:2.17336px;line-height:1.25;font-family:Laksaman;-inkscape-font-specification:'Laksaman, Bold';letter-spacing:0px;word-spacing:0px;stroke-width:0.054334;stroke:none;stroke-opacity:1;fill:#b3a369;fill-opacity:1"
           aria-label="U"
           sodipodi:nodetypes="sccsssccsss" /></g><g
         id="g32"
         transform="matrix(2.8575154,0,0,2.7729503,12.04014,-65.885628)"
         style="stroke:none;stroke-opacity:1;fill:#b3a369;fill-opacity:1"><path
           d="m 31.019218,37.85451 v 0.577541 H 31.22786 V 37.85451 c 0,-0.343391 0.100513,-0.515086 0.37653,-0.515086 0.27819,0 0.366121,0.169522 0.366121,0.515086 v 0.577541 h 0.208643 V 37.85451 c 0,-0.462925 -0.159652,-0.693302 -0.574764,-0.693302 -0.415112,0 -0.585172,0.230377 -0.585172,0.693302 z"
           id="path31"
           style="font-weight:bold;font-size:2.17336px;line-height:1.25;font-family:Laksaman;-inkscape-font-specification:'Laksaman, Bold';letter-spacing:0px;word-spacing:0px;stroke-width:0.054334;stroke:none;stroke-opacity:1;fill:#b3a369;fill-opacity:1"
           aria-label="U"
           sodipodi:nodetypes="sccsssccsss" /><path
           d="m 31.019218,36.638305 v 1.793746 h 0.208642 v -1.793746 z"
           id="path32"
           style="font-weight:bold;font-size:2.17336px;line-height:1.25;font-family:Laksaman;-inkscape-font-specification:'Laksaman, Bold';letter-spacing:0px;word-spacing:0px;stroke-width:0.0957546;stroke:none;stroke-opacity:1;fill:#b3a369;fill-opacity:1"
           aria-label="U"
           sodipodi:nodetypes="ccccc" /></g><path
         d="m 102.32043,43.979325 v 1.601493 h 0.5962 v -1.601493 c 0,-0.952206 0.28722,-1.428308 1.07594,-1.428308 v -0.494184 c -1.18619,0 -1.67214,0.638824 -1.67214,1.922492 z"
         id="path35"
         style="font-weight:bold;font-size:2.17336px;line-height:1.25;font-family:Laksaman;-inkscape-font-specification:'Laksaman, Bold';letter-spacing:0px;word-spacing:0px;stroke-width:0.152946;stroke:none;stroke-opacity:1;fill:#b3a369;fill-opacity:1"
         aria-label="U"
         sodipodi:nodetypes="sccsccs" /><path
         d="m 108.27884,43.658326 v -1.601493 h -0.5962 v 1.601493 c 0,0.952206 -0.28721,1.428308 -1.07594,1.428308 -0.79493,0 -1.04619,-0.470076 -1.04619,-1.428308 v -1.601493 h -0.5962 v 1.601493 c 0,1.283668 0.4562,1.922492 1.64239,1.922492 1.18619,0 1.67214,-0.638824 1.67214,-1.922492 z"
         id="path36"
         style="font-weight:bold;font-size:2.17336px;line-height:1.25;font-family:Laksaman;-inkscape-font-specification:'Laksaman, Bold';letter-spacing:0px;word-spacing:0px;stroke-width:0.152946;stroke:none;stroke-opacity:1;fill:#b3a369;fill-opacity:1"
         aria-label="U"
         sodipodi:nodetypes="sccsssccsss" /><g
         id="g67"
         transform="matrix(2.8575154,0,0,2.7729503,-8.7082845,-60.836255)"
         style="stroke:none;stroke-opacity:1;fill:#b3a369;fill-opacity:1"><path
           d="m 41.28022,37.798139 v 0.577541 h 0.208642 v -0.577541 c 0,-0.343391 0.100513,-0.515086 0.37653,-0.515086 0.27819,0 0.366121,0.169522 0.366121,0.515086 v 0.577541 h 0.208643 v -0.577541 c 0,-0.462925 -0.159652,-0.693302 -0.574764,-0.693302 -0.415112,0 -0.585172,0.230377 -0.585172,0.693302 z"
           id="path37"
           style="font-weight:bold;font-size:2.17336px;line-height:1.25;font-family:Laksaman;-inkscape-font-specification:'Laksaman, Bold';letter-spacing:0px;word-spacing:0px;stroke-width:0.054334;stroke:none;stroke-opacity:1;fill:#b3a369;fill-opacity:1"
           aria-label="U"
           sodipodi:nodetypes="sccsssccsss" /><path
           d="m 42.23173,37.7993 v 0.577541 h 0.208642 V 37.7993 c 0,-0.343391 0.100513,-0.515086 0.37653,-0.515086 0.27819,0 0.366121,0.169522 0.366121,0.515086 v 0.577541 h 0.208643 V 37.7993 c 0,-0.462925 -0.159652,-0.693302 -0.574764,-0.693302 -0.415112,0 -0.585172,0.230377 -0.585172,0.693302 z"
           id="path63"
           style="font-weight:bold;font-size:2.17336px;line-height:1.25;font-family:Laksaman;-inkscape-font-specification:'Laksaman, Bold';letter-spacing:0px;word-spacing:0px;stroke-width:0.054334;stroke:none;stroke-opacity:1;fill:#b3a369;fill-opacity:1"
           aria-label="U"
           sodipodi:nodetypes="sccsssccsss" /></g><g
         id="g100"
         transform="matrix(2.8575154,0,0,2.7729503,-7.2728556,-61.073767)"
         style="stroke:none;stroke-opacity:1;fill:#b3a369;fill-opacity:1"><path
           d="m 37.77763,36.668748 v 1.793746 h 0.208642 v -1.793746 z"
           id="path69"
           style="font-weight:bold;font-size:2.17336px;line-height:1.25;font-family:Laksaman;-inkscape-font-specification:'Laksaman, Bold';letter-spacing:0px;word-spacing:0px;stroke-width:0.0957546;stroke:none;stroke-opacity:1;fill:#b3a369;fill-opacity:1"
           aria-label="U"
           sodipodi:nodetypes="ccccc" /><path
           d="m 36.821023,37.892844 v 0.577541 h 0.208642 v -0.577541 c 0,-0.343391 0.100513,-0.515086 0.37653,-0.515086 0.27819,0 0.366121,0.169522 0.366121,0.515086 v 0.577541 h 0.208643 v -0.577541 c 0,-0.462925 -0.159652,-0.693302 -0.574764,-0.693302 -0.415112,0 -0.585172,0.230377 -0.585172,0.693302 z"
           id="path99"
           style="font-weight:bold;font-size:2.17336px;line-height:1.25;font-family:Laksaman;-inkscape-font-specification:'Laksaman, Bold';letter-spacing:0px;word-spacing:0px;stroke-width:0.054334;stroke:none;stroke-opacity:1;fill:#b3a369;fill-opacity:1"
           aria-label="U"
           sodipodi:nodetypes="sccsssccsss"
           clip-path="url(#clipPath144)"
           transform="translate(0.00689559)" /><path
           d="m 36.821023,37.892844 v 0.577541 h 0.208642 v -0.577541 c 0,-0.343391 0.100513,-0.515086 0.37653,-0.515086 v -0.178216 c -0.415112,0 -0.585172,0.230377 -0.585172,0.693302 z"
           id="path144"
           style="font-weight:bold;font-size:2.17336px;line-height:1.25;font-family:Laksaman;-inkscape-font-specification:'Laksaman, Bold';letter-spacing:0px;word-spacing:0px;stroke-width:0.054334;stroke:none;stroke-opacity:1;fill:#b3a369;fill-opacity:1"
           aria-label="U"
           sodipodi:nodetypes="sccsccs"
           clip-path="url(#clipPath144)"
           transform="matrix(1,0,0,-1.0000203,0.00689559,75.662791)" /></g></g></g></svg>
